<?xml version="1.0" standalone="no"?>
<!DOCTYPE svg PUBLIC "-//W3C//DTD SVG 20010904//EN"
 "http://www.w3.org/TR/2001/REC-SVG-20010904/DTD/svg10.dtd">
<svg version="1.0" xmlns="http://www.w3.org/2000/svg"
 width="512.000000pt" height="512.000000pt" viewBox="0 0 512.000000 512.000000"
 preserveAspectRatio="xMidYMid meet">
<metadata>
Created by potrace 1.14, written by Peter Selinger 2001-2017
</metadata>
<g transform="translate(0.000000,512.000000) scale(0.100000,-0.100000)"
fill="#000000" stroke="none">
<path d="M3045 4935 c1 -14 -4 -30 -11 -36 -8 -6 -11 -15 -8 -20 3 -5 2 -9 -3
-8 -20 4 -44 -2 -39 -9 2 -4 -5 -9 -17 -9 -17 -2 -19 0 -7 7 12 8 10 9 -8 7
-13 -2 -32 -11 -43 -21 -20 -17 -21 -17 -14 6 5 20 4 21 -5 5 -6 -9 -15 -15
-19 -12 -5 2 -14 -2 -21 -10 -7 -8 -9 -15 -4 -15 5 0 -2 -6 -16 -13 -34 -17
-94 -21 -84 -6 4 8 3 9 -5 5 -9 -6 -9 -11 0 -22 10 -13 8 -13 -15 -4 -20 7
-25 7 -20 -2 5 -8 2 -9 -10 -5 -14 5 -17 3 -12 -8 6 -15 -17 -17 -41 -2 -6 4
-15 2 -19 -4 -4 -7 -3 -9 3 -6 5 3 10 0 10 -7 0 -8 -8 -11 -20 -8 -15 4 -18 2
-12 -8 5 -9 4 -11 -4 -6 -6 4 -8 13 -4 19 11 18 12 38 2 31 -5 -3 -7 -9 -4
-14 3 -5 0 -12 -6 -15 -5 -4 -8 -13 -5 -21 3 -9 0 -11 -11 -7 -12 5 -14 2 -9
-8 4 -8 0 -5 -8 5 -13 17 -18 18 -29 6 -7 -8 -8 -10 -1 -7 7 4 14 1 17 -6 3
-8 -6 -12 -24 -13 -24 -1 -27 1 -18 13 7 7 9 16 5 20 -3 3 -6 1 -6 -5 0 -15
-55 -43 -66 -34 -5 4 -5 3 -1 -3 11 -13 30 -13 38 -2 4 5 9 5 12 1 3 -5 -1
-15 -9 -22 -9 -8 -14 -9 -14 -2 0 7 -6 7 -21 -1 -17 -9 -20 -8 -14 2 6 8 4 10
-4 5 -7 -5 -10 -15 -7 -23 3 -8 1 -11 -5 -8 -5 4 -16 1 -24 -5 -12 -10 -13 -7
-10 17 2 15 2 22 -1 15 -3 -6 -10 -10 -15 -7 -5 4 -6 -1 -3 -9 8 -21 -6 -20
-22 2 -13 16 -14 16 -7 -2 4 -13 3 -17 -5 -12 -7 4 -12 3 -12 -3 0 -6 -7 -7
-17 -4 -11 5 -14 3 -8 -6 4 -7 -4 -5 -19 4 -15 10 -30 15 -34 11 -3 -4 -1 -11
6 -15 8 -5 -2 -8 -24 -9 -25 -1 -42 4 -51 16 -11 15 -12 15 -7 0 4 -13 -1 -16
-25 -14 -24 2 -28 -1 -21 -13 7 -14 1 -15 -37 -12 -35 2 -44 0 -38 -9 5 -8 4
-11 -3 -6 -6 3 -16 -2 -22 -11 -7 -12 -10 -13 -7 -3 2 8 -2 21 -10 29 -13 12
-14 11 -8 -10 7 -20 6 -22 -7 -12 -8 7 -18 10 -21 6 -4 -3 -7 -1 -7 6 0 8 -6
7 -22 -3 -13 -7 -31 -12 -41 -11 -9 2 -15 -1 -11 -6 5 -8 -9 -13 -28 -10 -4 0
-5 -5 -2 -12 3 -8 -2 -14 -10 -14 -8 0 -13 5 -12 11 2 6 1 8 -1 3 -3 -4 -10
-4 -15 -1 -7 4 -8 2 -4 -4 4 -7 2 -20 -4 -29 -11 -16 -11 -16 -6 -1 3 10 1 20
-4 23 -6 4 -10 -1 -10 -9 0 -10 -6 -13 -15 -10 -13 5 -13 9 -3 23 12 14 11 15
-5 2 -17 -13 -17 -15 0 -35 10 -12 11 -15 3 -8 -16 13 -34 17 -26 4 2 -4 -6
-8 -20 -8 -13 0 -24 4 -24 10 0 5 -7 1 -15 -10 -8 -10 -14 -23 -15 -29 0 -5 5
-3 10 5 5 8 10 11 10 5 0 -5 -5 -17 -10 -25 -9 -13 -10 -13 -10 0 -1 12 -3 12
-11 -2 -5 -9 -16 -15 -24 -12 -8 4 -12 11 -8 17 3 6 1 7 -6 3 -6 -4 -8 -12 -5
-18 5 -8 1 -9 -10 -5 -14 6 -15 4 -5 -16 l12 -22 -26 23 c-16 16 -27 20 -32
13 -3 -7 -1 -10 6 -9 7 2 15 -5 17 -14 2 -10 -2 -18 -8 -18 -6 0 -8 5 -4 11 5
8 1 8 -13 0 -11 -6 -23 -7 -27 -4 -3 3 -6 1 -6 -6 0 -8 7 -10 20 -6 11 4 20 2
20 -4 0 -6 -3 -10 -7 -10 -21 3 -33 -3 -33 -17 0 -8 -5 -12 -10 -9 -6 4 -7 11
-4 17 4 7 2 8 -5 4 -6 -4 -9 -12 -6 -17 4 -5 -4 -9 -17 -9 -23 -1 -23 -1 -3
-16 19 -15 19 -15 -7 -9 -28 7 -40 -8 -15 -18 9 -4 9 -6 -1 -6 -7 -1 -10 -7
-7 -13 4 -7 -1 -4 -10 7 -17 20 -17 20 -11 -2 7 -22 -6 -26 -32 -9 -11 7 -11
4 -1 -12 7 -12 17 -18 23 -15 5 4 6 1 2 -6 -5 -7 -14 -10 -21 -7 -8 3 -19 -2
-26 -10 -10 -12 -8 -17 7 -29 17 -13 17 -14 1 -9 -12 4 -17 2 -15 -7 2 -8 -2
-13 -9 -12 -8 2 -10 -4 -6 -14 5 -12 3 -14 -8 -9 -8 4 -6 1 4 -7 15 -13 15
-15 3 -20 -9 -4 -20 1 -25 11 -14 24 -13 5 1 -21 11 -21 10 -21 -8 -7 -10 8
-16 11 -12 6 9 -11 -10 -48 -22 -41 -4 3 -7 -7 -5 -21 2 -19 -3 -28 -16 -31
-11 -3 -19 -10 -19 -15 0 -5 5 -6 12 -2 7 5 8 3 4 -5 -5 -7 -14 -10 -22 -7 -7
3 -20 -5 -29 -16 -13 -20 -13 -24 1 -39 15 -17 15 -18 -10 -13 -23 4 -25 2
-17 -19 7 -18 6 -24 -4 -24 -8 0 -12 4 -9 8 2 4 -1 11 -7 15 -8 4 -9 3 -5 -4
4 -7 1 -12 -6 -12 -7 -1 -2 -7 12 -15 14 -8 19 -14 12 -15 -7 0 -11 -4 -7 -9
3 -5 1 -12 -4 -16 -6 -3 -8 3 -6 13 2 11 -3 19 -11 19 -10 0 -11 -4 -3 -14 6
-7 8 -13 4 -13 -4 0 -2 -6 4 -13 6 -8 8 -17 4 -21 -4 -4 1 -4 11 0 14 5 15 9
4 15 -7 5 -8 9 -3 9 6 0 17 -5 25 -10 12 -8 12 -10 1 -10 -11 0 -11 -3 0 -17
10 -11 10 -14 2 -9 -12 7 -18 -10 -14 -41 1 -7 -3 -13 -9 -13 -6 0 -8 5 -5 10
3 6 1 10 -4 10 -14 0 -14 -6 0 -32 6 -11 7 -18 2 -16 -4 2 -19 -6 -32 -18 -22
-22 -23 -23 -2 -19 11 2 23 -1 27 -6 3 -5 2 -9 -3 -8 -4 1 -16 1 -27 0 -18 -1
-18 -2 -1 -28 l18 -28 -23 20 -23 20 13 -25 c12 -22 12 -24 -3 -12 -13 11 -15
10 -10 -9 4 -15 3 -20 -5 -15 -7 4 -13 2 -13 -3 -1 -6 -2 -16 -3 -22 0 -6 -9
-16 -19 -24 -16 -11 -16 -13 -2 -19 9 -3 13 -10 10 -16 -3 -5 -1 -10 6 -10 21
0 1 -13 -23 -15 -13 -1 -27 -3 -33 -4 -5 -1 2 -9 18 -19 l27 -19 -22 -11 c-22
-12 -22 -12 -1 -7 15 4 21 2 19 -9 -1 -9 -6 -19 -11 -23 -4 -4 -5 -2 0 6 5 10
4 12 -4 7 -15 -10 -3 -29 15 -22 8 3 14 1 14 -4 0 -6 -7 -10 -16 -10 -13 0
-11 -4 7 -18 17 -15 19 -21 9 -27 -8 -5 -11 -4 -6 3 3 6 3 13 -2 16 -4 2 -8
-6 -8 -19 0 -13 4 -21 9 -18 5 3 6 -4 2 -16 -4 -15 -2 -21 9 -21 8 0 17 -4 20
-9 4 -5 -4 -7 -16 -5 -13 2 -17 1 -10 -2 10 -5 10 -9 0 -21 -11 -14 -10 -15
12 -10 14 4 20 4 13 1 -7 -3 -11 -11 -9 -17 1 -7 1 -9 -1 -4 -3 4 -9 4 -15 1
-6 -4 -1 -12 13 -20 13 -7 19 -13 12 -14 -14 0 -10 -33 5 -38 6 -2 8 -10 5
-19 -4 -11 -2 -14 5 -9 15 9 16 -6 1 -21 -9 -9 -6 -11 12 -7 13 2 18 2 12 -2
-7 -3 -13 -10 -13 -15 0 -6 5 -7 10 -4 6 3 11 1 11 -4 3 -26 4 -30 12 -37 13
-13 8 -24 -15 -34 l-23 -9 24 0 c15 -1 21 -6 18 -15 -3 -7 0 -19 6 -26 9 -9 9
-11 1 -7 -7 4 -15 -1 -18 -10 -4 -10 -4 -14 0 -10 10 9 34 -12 34 -30 0 -8 -4
-12 -9 -8 -5 3 -13 0 -17 -6 -4 -8 -3 -9 4 -5 11 6 36 -27 27 -36 -3 -3 1 -5
9 -5 12 0 12 4 0 23 -10 15 -12 24 -4 29 6 3 10 3 9 -2 -3 -18 1 -34 9 -29 4
2 9 -7 10 -20 1 -17 -2 -23 -10 -18 -7 4 -8 3 -4 -4 4 -6 13 -9 21 -5 11 4 13
1 9 -11 -3 -9 -11 -13 -18 -9 -6 4 -5 -1 3 -10 7 -9 10 -17 5 -17 -4 0 1 -6
11 -14 11 -8 24 -12 29 -9 5 4 6 1 2 -6 -4 -6 -11 -9 -15 -7 -4 3 -8 -4 -8
-15 -2 -17 0 -18 13 -4 9 8 18 15 22 15 3 0 1 -5 -6 -12 -15 -15 -16 -29 -1
-26 6 2 12 -7 14 -19 1 -12 -3 -19 -8 -16 -6 3 -7 1 -3 -5 4 -7 2 -12 -5 -12
-7 0 -4 -6 6 -14 11 -8 26 -11 34 -8 10 4 12 1 6 -9 -8 -12 -6 -12 8 0 16 12
22 10 54 -16 20 -16 38 -36 40 -44 3 -8 -2 -6 -11 5 -9 11 -16 16 -16 11 0
-16 32 -44 44 -39 7 3 19 -2 26 -11 7 -8 20 -15 28 -15 13 0 12 -3 -4 -15 -16
-13 -16 -14 -1 -9 11 4 24 -2 37 -17 10 -13 19 -18 20 -11 0 6 5 12 11 12 6 0
9 -7 6 -14 -4 -10 -1 -13 9 -9 8 3 23 -5 35 -18 l20 -24 -11 23 c-10 21 -10
22 9 10 11 -6 17 -16 14 -22 -4 -5 0 -7 9 -3 9 3 25 -1 36 -8 10 -8 22 -12 25
-9 8 9 3 -19 -8 -36 -7 -12 -6 -13 6 -3 9 7 20 9 29 3 9 -6 20 -4 29 3 12 10
14 9 7 -8 -4 -11 -4 -16 0 -12 4 4 14 1 22 -6 10 -8 13 -8 9 -1 -4 7 0 14 8
18 9 3 15 0 15 -9 0 -8 9 -13 20 -12 11 1 20 5 20 10 0 5 -8 6 -17 2 -15 -5
-16 -4 -5 6 9 10 15 10 23 2 6 -6 18 -9 25 -6 9 3 14 -2 14 -13 0 -16 2 -17
10 -4 5 8 10 10 10 4 0 -7 13 -10 30 -8 17 2 30 -1 30 -6 0 -5 -9 -7 -19 -5
-15 3 -18 0 -14 -13 5 -11 8 -12 11 -4 3 10 7 10 20 0 9 -8 13 -8 9 -2 -4 7 0
14 8 17 9 4 12 1 8 -9 -4 -11 0 -15 13 -12 12 2 18 -2 16 -10 -1 -8 2 -11 8
-7 6 3 8 11 5 16 -4 5 1 9 10 9 10 0 13 5 9 12 -4 7 -3 8 5 4 8 -6 9 -12 2
-20 -17 -20 -1 -26 24 -10 18 12 25 12 31 3 5 -8 3 -10 -7 -4 -11 7 -12 6 -2
-7 7 -8 9 -19 5 -23 -4 -5 -1 -5 6 -1 7 4 10 11 7 16 -3 4 2 13 10 20 12 10
14 8 11 -7 -3 -13 2 -19 14 -19 10 0 17 4 14 7 -2 4 0 10 6 14 5 3 10 -2 10
-12 0 -13 3 -15 8 -5 5 7 16 10 25 6 9 -3 14 -10 11 -15 -3 -5 0 -9 5 -9 6 0
11 6 11 14 0 11 8 12 35 6 24 -5 33 -5 28 3 -4 6 0 8 10 4 10 -4 24 -10 32
-13 10 -4 15 0 15 11 0 9 5 13 10 10 6 -4 8 -10 5 -15 -3 -5 0 -12 6 -16 7 -4
9 -3 6 3 -4 6 2 13 13 16 11 3 18 2 15 -3 -3 -4 2 -13 9 -19 11 -9 16 -9 22 0
4 7 3 9 -3 6 -5 -3 -10 0 -10 8 0 9 5 11 11 7 6 -5 28 -8 48 -7 20 0 35 -2 33
-5 -2 -3 6 -12 18 -20 19 -12 21 -11 10 2 -21 24 -2 29 19 5 l19 -22 -11 24
c-10 19 -10 22 2 15 14 -9 28 -12 66 -16 14 -1 21 -7 18 -15 -3 -7 -1 -13 4
-13 6 0 10 8 10 18 0 14 2 15 9 2 6 -8 8 -17 6 -20 -2 -3 5 -6 16 -6 19 0 19
1 3 13 -10 7 -13 13 -7 13 18 0 44 -31 36 -43 -3 -7 3 -4 14 6 24 21 34 22 27
2 -4 -8 -1 -15 5 -15 6 0 11 6 11 14 0 8 5 18 12 22 7 5 8 3 3 -6 -6 -10 -3
-12 13 -8 12 4 20 2 17 -2 -3 -5 8 -7 24 -5 18 2 35 -2 42 -11 6 -7 16 -11 22
-7 5 3 7 1 3 -5 -3 -6 4 -18 16 -26 12 -9 17 -16 10 -16 -6 0 -11 -3 -10 -7 2
-5 -1 -8 -7 -8 -5 0 -10 7 -9 15 1 9 -7 16 -18 16 -17 0 -18 -2 -4 -12 14 -9
14 -13 3 -23 -8 -6 -18 -7 -22 -3 -5 4 -5 2 -2 -5 10 -16 -3 -44 -17 -36 -7 4
-7 1 1 -9 7 -8 9 -19 5 -23 -4 -5 -1 -5 7 0 10 6 12 2 6 -16 -7 -23 -6 -23 7
-5 11 13 17 16 22 7 4 -6 12 -8 18 -5 7 4 8 2 4 -4 -4 -6 -2 -20 4 -31 7 -14
7 -22 -2 -27 -7 -5 -8 -3 -3 7 5 8 5 11 0 7 -4 -4 -16 -3 -26 3 -11 5 -19 6
-19 2 0 -5 14 -14 31 -22 20 -9 27 -16 19 -21 -6 -4 -11 -10 -11 -14 3 -24 -1
-27 -18 -12 -14 13 -21 14 -27 5 -4 -7 -3 -10 4 -5 6 3 14 1 18 -5 3 -6 1 -15
-6 -19 -8 -5 -7 -9 5 -13 9 -4 13 -3 10 3 -3 6 -2 10 3 10 5 0 9 -13 9 -30 0
-16 -4 -30 -9 -30 -5 0 -6 -5 -3 -10 3 -5 2 -10 -4 -10 -5 0 -9 9 -8 19 0 11
5 17 11 14 5 -3 6 -1 2 5 -5 9 -13 9 -27 2 -23 -13 -25 -22 -2 -13 10 4 14 2
10 -4 -10 -16 3 -44 17 -36 6 4 5 -1 -3 -11 -8 -9 -20 -15 -26 -12 -7 2 -12
-1 -12 -7 1 -32 -4 -48 -12 -42 -5 3 -12 1 -15 -4 -4 -5 -1 -13 5 -17 8 -5 9
-3 4 6 -5 9 -4 11 4 6 6 -4 9 -12 5 -17 -3 -5 -9 -7 -14 -4 -5 3 -12 -4 -15
-15 -6 -18 -9 -19 -23 -8 -10 7 -14 8 -10 4 4 -5 0 -15 -10 -23 -10 -9 -11
-11 -2 -7 13 7 13 5 2 -8 -10 -13 -20 -14 -43 -8 -27 8 -29 7 -18 -6 10 -12 9
-13 -6 -8 -13 5 -16 4 -10 -5 6 -10 3 -11 -15 -1 -20 11 -22 10 -17 -4 4 -11
3 -15 -4 -11 -5 4 -16 1 -24 -5 -12 -10 -16 -9 -22 6 -5 11 -14 20 -22 22 -12
3 -12 1 0 -14 13 -16 12 -16 -8 -6 -27 15 -33 15 -33 1 0 -5 4 -8 9 -4 5 3 12
2 15 -3 6 -10 -68 -7 -85 3 -7 5 -10 4 -6 -2 4 -6 -1 -14 -10 -17 -18 -7 -35
12 -26 28 3 5 1 6 -5 2 -6 -4 -9 -13 -6 -20 4 -10 -3 -14 -25 -12 -16 1 -28
-1 -25 -5 2 -4 0 -10 -6 -14 -5 -3 -10 -1 -10 4 0 6 -5 11 -11 11 -5 0 -7 -4
-4 -10 4 -6 -1 -7 -11 -3 -10 3 -15 2 -12 -3 4 -5 -13 -9 -37 -9 -24 -1 -41 3
-39 7 3 4 0 8 -6 8 -6 0 -8 5 -4 13 6 9 5 9 -8 0 -8 -7 -19 -9 -23 -5 -5 4 -6
0 -3 -8 4 -11 0 -16 -12 -16 -10 0 -17 3 -14 7 2 4 -3 9 -11 12 -10 4 -12 1
-9 -11 4 -10 2 -13 -3 -7 -4 6 -17 12 -28 13 -11 2 -21 8 -23 13 -2 5 -8 9
-13 9 -6 0 -7 -6 -3 -13 6 -9 4 -9 -7 0 -17 17 -32 17 -23 1 6 -10 5 -10 -8
-1 -8 7 -18 10 -21 6 -4 -3 -7 -1 -7 5 0 7 8 12 18 13 12 0 13 2 3 6 -8 3 -20
-2 -28 -13 -12 -17 -13 -17 -13 2 0 12 -7 21 -15 21 -11 0 -12 -4 -4 -14 16
-18 4 -16 -15 3 -10 9 -16 11 -16 4 0 -7 -7 -4 -16 5 -14 13 -19 14 -25 3 -7
-10 -9 -10 -9 0 0 7 -6 12 -12 10 -19 -3 -60 21 -53 32 4 6 -1 7 -11 3 -13 -5
-16 -3 -11 10 4 11 2 14 -8 10 -8 -3 -12 -10 -8 -16 3 -6 1 -7 -5 -3 -6 4 -9
13 -5 21 5 15 -7 20 -36 15 -9 -1 -12 4 -8 14 5 13 2 13 -20 5 -22 -8 -24 -7
-15 4 17 19 4 27 -25 16 -34 -13 -40 -11 -18 4 14 11 15 16 5 22 -9 5 -11 4
-6 -3 5 -8 2 -10 -8 -6 -14 5 -14 9 0 35 8 16 11 29 7 30 -5 0 1 4 12 9 17 7
17 9 3 9 -10 1 -18 6 -18 12 0 8 -6 7 -17 -2 -14 -11 -14 -8 2 11 11 14 16 22
11 18 -5 -4 -15 0 -23 10 -11 15 -12 15 -7 1 3 -10 0 -20 -7 -25 -7 -4 -10 -3
-6 3 4 6 0 13 -8 17 -8 3 -15 2 -15 -3 0 -5 -11 -7 -24 -6 -19 2 -23 -1 -19
-13 4 -10 2 -13 -5 -8 -7 4 -12 2 -12 -6 0 -10 -2 -10 -9 1 -7 11 -10 9 -16
-8 -6 -21 -25 -29 -25 -11 0 6 -5 10 -11 10 -5 0 -7 -4 -4 -10 4 -6 -1 -7 -12
-3 -16 6 -17 5 -3 -12 13 -17 13 -18 0 -9 -21 13 -61 13 -50 -1 5 -6 -1 -11
-18 -12 -34 -2 -54 -7 -69 -16 -7 -5 -13 -5 -14 0 0 4 -5 -1 -10 -12 l-9 -20
3 20 c2 11 9 19 16 17 7 -1 10 2 6 8 -3 5 -1 10 6 10 7 0 9 3 6 6 -4 4 -13 2
-20 -4 -8 -7 -17 -8 -21 -4 -4 4 -6 2 -4 -3 2 -6 -1 -10 -7 -10 -5 0 -9 4 -7
8 1 5 -2 6 -8 2 -6 -3 -8 -11 -5 -16 5 -8 -16 -14 -37 -10 -5 0 -7 -5 -5 -12
1 -6 -6 -11 -15 -11 -10 1 -16 -2 -13 -6 3 -5 2 -10 -2 -13 -5 -2 -3 -2 4 -1
6 2 14 -3 16 -10 4 -9 -3 -12 -23 -10 -16 2 -31 0 -34 -5 -3 -4 6 -7 19 -5 14
1 25 -2 25 -8 0 -5 -6 -8 -12 -5 -18 6 -48 -11 -48 -28 0 -7 -5 -17 -12 -21
-6 -4 -8 -3 -4 4 3 6 2 13 -3 16 -5 4 -13 -3 -16 -15 -5 -14 -13 -19 -26 -16
-13 3 -17 1 -12 -6 11 -18 12 -38 2 -31 -5 3 -7 10 -4 15 4 5 1 9 -4 9 -6 0
-11 -4 -11 -10 0 -5 -6 -9 -13 -7 -7 1 -11 -7 -9 -23 4 -22 2 -23 -14 -10 -16
14 -16 13 -4 -10 12 -23 12 -24 -3 -11 -15 12 -17 11 -18 -5 -1 -11 -1 -23 0
-27 1 -5 -3 -6 -9 -2 -6 3 -8 10 -5 15 3 5 1 12 -5 15 -6 4 -9 1 -8 -7 2 -7
-3 -12 -9 -11 -7 2 -13 -2 -13 -7 0 -6 5 -10 10 -10 6 0 10 -4 10 -9 0 -4 -11
-7 -25 -6 -14 2 -23 -1 -19 -6 3 -5 10 -6 16 -3 7 5 8 2 4 -5 -5 -7 -15 -10
-23 -7 -8 3 -11 2 -8 -3 3 -6 -3 -15 -12 -21 -15 -9 -15 -10 6 -4 16 4 21 3
17 -5 -4 -6 -13 -11 -20 -11 -8 0 -20 -8 -27 -17 -8 -9 -9 -14 -3 -10 7 4 15
0 18 -9 3 -8 2 -13 -2 -11 -4 2 -15 -4 -24 -15 -10 -10 -13 -18 -8 -18 6 0 10
-7 10 -16 0 -11 -6 -14 -18 -10 -14 5 -14 4 2 -9 15 -11 16 -15 5 -16 -9 0 -7
-4 6 -10 17 -8 15 -9 -10 -5 -27 4 -28 3 -11 -9 19 -14 13 -41 -6 -29 -7 4 -8
2 -4 -5 6 -9 11 -9 21 -1 11 9 13 6 11 -14 -1 -14 -6 -29 -11 -34 -4 -4 -5 -2
-1 5 3 6 2 14 -3 17 -5 3 -7 -14 -4 -40 3 -34 1 -44 -8 -38 -8 4 -9 3 -5 -5 4
-6 11 -9 16 -6 5 3 11 1 15 -5 3 -5 -1 -10 -9 -10 -8 0 -18 -5 -22 -12 -5 -7
-3 -8 6 -3 10 6 12 4 7 -8 -3 -9 -2 -19 4 -23 6 -4 5 -12 -3 -22 -10 -11 -5
-11 17 4 26 16 28 16 16 1 -9 -12 -10 -17 -2 -17 7 0 10 -4 6 -10 -3 -5 8 -16
25 -25 16 -8 30 -13 30 -11 0 3 -12 12 -26 19 -17 9 -23 17 -15 21 6 4 11 3
11 -2 0 -14 57 -35 72 -26 10 6 10 4 -1 -9 -8 -10 -9 -17 -3 -17 6 0 16 8 22
18 11 16 11 16 6 0 -3 -12 0 -18 10 -18 9 0 12 5 8 12 -4 7 -3 8 5 4 9 -6 9
-11 1 -21 -8 -10 -8 -15 1 -21 7 -4 9 -3 6 3 -4 6 1 14 10 18 10 3 19 1 21 -5
3 -8 9 -7 20 2 14 10 15 10 5 -2 -15 -16 -17 -34 -4 -25 5 3 13 0 17 -6 5 -9
11 -6 22 7 14 18 14 18 8 -2 -4 -14 0 -26 11 -35 11 -9 14 -10 9 -1 -4 8 -1
12 9 12 11 0 15 -5 12 -14 -4 -10 0 -12 15 -8 16 4 19 2 13 -8 -6 -10 -1 -12
19 -8 18 4 26 1 26 -9 0 -8 6 -13 13 -10 6 2 11 10 9 16 -1 7 2 10 8 6 6 -3 7
-12 4 -18 -5 -9 -4 -9 6 0 10 9 18 9 34 1 20 -10 20 -10 6 7 -14 17 -14 18 8
6 12 -7 20 -17 16 -23 -4 -7 -3 -8 5 -4 6 4 9 11 6 16 -3 5 -1 11 4 14 5 4 8
-5 7 -19 -2 -13 1 -22 5 -19 5 3 9 13 9 22 0 13 3 12 15 -5 17 -24 45 -21 45
4 0 11 6 8 20 -8 10 -13 19 -19 20 -12 0 6 -6 13 -12 16 -7 2 0 6 15 9 19 4
27 2 24 -6 -3 -7 5 -12 18 -12 14 0 21 4 17 11 -3 5 2 4 12 -4 15 -12 17 -12
14 0 -2 8 3 12 12 10 8 -2 22 -4 30 -5 9 -1 20 -5 25 -8 6 -3 18 -4 28 -2 12
1 17 -2 14 -10 -3 -7 -1 -19 4 -27 7 -11 9 -11 9 -1 0 7 4 10 10 7 5 -3 10 2
11 12 0 16 1 16 8 -2 5 -11 7 -23 4 -27 -2 -5 0 -8 6 -8 5 0 13 9 16 20 8 26
25 16 20 -10 -2 -12 0 -18 6 -15 5 4 6 11 3 17 -4 7 4 8 26 3 24 -5 31 -4 25
5 -4 7 5 4 19 -5 15 -10 25 -24 22 -30 -3 -9 2 -11 17 -7 12 3 16 7 9 10 -6 2
-12 7 -12 10 0 8 123 7 136 0 5 -3 19 -4 31 -3 12 1 20 -2 17 -7 -8 -13 21 -9
34 4 12 12 13 10 16 -14 0 -6 8 -13 16 -15 12 -4 12 -3 1 5 -9 7 -10 12 -2 16
6 4 11 4 11 -1 0 -4 5 -1 11 7 9 13 10 12 5 -2 -3 -10 -1 -20 5 -23 5 -4 8 -3
7 2 -3 9 5 13 28 13 9 0 12 -5 8 -12 -4 -7 -3 -8 4 -4 6 4 8 14 5 24 -4 13 -2
13 10 -3 10 -12 16 -15 17 -7 0 7 4 11 8 8 5 -3 22 -7 38 -10 27 -5 28 -4 10
9 -11 8 -15 15 -9 15 6 0 16 -7 23 -15 11 -13 15 -13 21 -3 6 9 9 7 10 -7 0
-11 3 -14 6 -8 3 8 11 10 21 4 34 -16 99 -1 86 21 -5 7 -2 8 7 2 8 -5 25 -10
39 -10 14 -1 33 -2 43 -3 11 -1 15 -6 11 -13 -4 -7 -3 -8 5 -4 8 6 9 12 2 20
-8 9 -7 13 4 13 8 0 12 -4 9 -9 -3 -4 0 -8 6 -8 6 0 8 -5 4 -12 -4 -7 -3 -8 4
-4 7 4 12 14 12 22 0 8 5 14 11 14 6 0 8 -9 4 -22 l-7 -23 16 22 c16 21 51 25
51 5 0 -18 14 -25 28 -14 10 9 19 7 36 -4 12 -9 25 -13 28 -10 4 3 1 6 -6 6
-7 0 -9 5 -5 12 4 6 3 8 -2 5 -5 -3 -10 4 -10 15 0 20 1 20 13 1 10 -14 21
-18 44 -15 19 3 26 7 19 12 -7 4 -2 8 14 8 20 0 24 -3 16 -13 -8 -9 -8 -15 0
-20 6 -4 9 -1 8 7 -2 7 4 12 14 10 9 -1 19 2 23 8 3 5 0 8 -7 7 -7 -2 -10 -2
-6 0 4 3 10 4 14 3 4 -1 11 4 16 12 8 10 9 9 5 -4 -3 -9 3 -24 16 -35 l22 -18
-18 22 c-18 21 -18 22 2 33 15 8 21 8 21 0 0 -6 4 -9 9 -5 5 3 13 0 17 -6 4
-8 3 -9 -4 -5 -8 5 -10 1 -5 -9 3 -9 9 -13 12 -8 3 5 18 9 33 8 15 -1 25 2 22
6 -2 4 -13 6 -24 4 -11 -2 -20 0 -20 6 0 10 41 5 61 -7 8 -4 9 -3 5 4 -9 15
-1 15 26 1 11 -6 18 -7 14 -1 -9 16 27 42 44 32 13 -9 13 -10 0 -11 -8 -1 -18
-1 -22 0 -5 0 -8 -4 -8 -9 0 -16 18 -12 39 9 13 13 21 16 24 8 3 -9 8 -8 18 2
9 8 9 11 2 7 -9 -5 -11 -2 -7 9 6 14 8 14 19 -2 13 -17 14 -17 20 -1 4 10 14
18 22 18 9 0 11 5 7 13 -5 7 -1 7 10 -2 14 -12 19 -12 26 -2 4 8 12 11 18 7 5
-3 9 0 8 7 0 6 3 13 8 14 5 1 12 7 17 15 5 7 13 14 19 14 5 1 15 2 21 3 5 0 8
5 5 10 -4 5 4 7 16 3 14 -3 19 -2 14 6 -4 7 -1 12 8 12 23 0 31 -4 28 -13 -1
-5 2 -6 7 -3 5 4 8 15 6 25 -3 15 2 18 26 15 19 -2 28 1 26 9 -1 7 10 12 30
11 18 0 30 3 28 7 -3 4 2 9 10 13 8 3 19 -3 24 -12 6 -9 11 -12 11 -5 0 12 17
12 38 -1 11 -7 11 -4 0 13 -7 12 -16 21 -20 21 -5 0 -8 5 -8 12 0 6 10 3 22
-8 12 -10 18 -14 15 -7 -11 18 17 22 30 4 11 -14 12 -13 8 6 -2 13 1 26 7 29
6 4 8 3 4 -4 -10 -17 18 -20 30 -3 10 13 14 13 30 1 10 -8 15 -10 12 -5 -4 6
3 17 14 24 18 11 20 11 14 -4 -6 -16 -4 -16 10 -4 10 8 19 13 21 12 9 -7 23
-2 23 8 0 8 -4 8 -14 0 -8 -7 -16 -8 -19 -4 -3 5 6 13 19 20 13 6 22 7 19 3
-3 -5 -1 -11 5 -15 5 -3 10 0 10 8 0 8 9 13 23 12 12 -1 34 1 48 6 15 4 31 3
37 -3 6 -6 12 -6 17 1 3 6 1 10 -6 9 -6 -2 -14 3 -17 11 -3 10 1 12 17 8 19
-5 20 -3 10 9 -10 13 -8 14 15 10 25 -4 26 -3 14 11 -9 12 -9 15 0 9 6 -4 12
-2 12 3 0 6 5 11 11 11 5 0 7 -6 3 -12 -4 -7 2 -4 14 6 12 11 22 24 22 29 0 6
-7 2 -15 -9 -8 -10 -15 -14 -15 -9 0 17 21 34 36 28 8 -3 14 1 14 11 0 15 12
21 35 16 5 -1 1 9 -10 21 -11 12 -15 19 -8 16 6 -4 14 -3 18 3 3 5 2 10 -3 10
-6 0 -12 7 -16 15 -3 8 -2 14 2 14 19 -3 25 2 12 11 -13 8 -13 11 -1 22 12 11
13 10 6 -2 -6 -12 -5 -13 5 -3 15 14 22 55 7 46 -5 -3 -6 4 -2 17 5 17 4 21
-5 15 -9 -5 -11 -4 -6 4 4 6 12 9 17 6 5 -4 9 1 9 10 0 10 -5 13 -12 9 -7 -4
-8 -3 -4 4 4 7 13 12 21 12 8 0 17 5 21 12 4 7 3 8 -4 4 -7 -4 -17 -4 -22 -1
-15 9 8 47 23 39 7 -4 4 2 -6 13 -16 18 -16 23 -4 34 7 7 11 24 9 37 -3 14 1
28 9 33 10 6 10 9 2 9 -7 0 -13 5 -13 11 0 5 5 7 10 4 6 -3 11 -1 11 4 3 21 4
26 13 40 6 9 5 12 0 8 -6 -3 -16 -2 -24 4 -12 7 -11 9 5 10 11 1 24 1 28 0 5
-1 6 3 2 9 -3 6 -11 7 -17 4 -6 -4 -8 1 -3 15 5 17 3 20 -12 15 -10 -3 -6 2
10 11 30 18 38 31 8 16 -14 -8 -20 -7 -24 4 -4 10 -1 12 11 9 15 -5 15 -4 2 8
-15 13 -40 53 -40 63 0 3 5 5 11 5 5 0 8 -4 4 -9 -3 -5 -1 -12 4 -15 5 -4 8 2
6 11 -2 10 -4 22 -4 27 -1 4 -9 5 -18 1 -15 -5 -16 -4 -5 6 6 7 12 20 12 28 0
13 -2 13 -9 3 -7 -11 -9 -11 -14 2 -3 8 -2 18 3 21 4 3 7 17 5 31 -1 17 6 33
22 48 17 16 20 23 9 23 -8 0 -13 -4 -10 -9 3 -4 1 -8 -4 -8 -6 0 -12 7 -16 15
-3 8 -2 14 2 13 4 -1 15 2 26 7 17 8 17 9 -5 22 -15 9 -17 12 -5 9 14 -5 17
-2 12 10 -4 12 -2 15 9 11 8 -4 17 -2 20 4 4 5 1 8 -7 7 -7 -2 -11 4 -9 12 1
8 4 30 5 48 2 18 6 32 9 32 4 0 9 0 12 0 3 0 1 -10 -5 -22 -10 -21 -10 -22 4
-5 8 11 12 26 9 35 -4 10 -2 13 5 8 6 -3 14 -2 17 4 4 6 1 9 -6 8 -20 -5 -22
30 -2 35 17 4 17 5 -1 6 -12 1 -16 6 -12 17 4 9 1 24 -6 32 -10 12 -10 14 0 8
12 -7 17 7 12 29 -1 6 -3 16 -3 23 0 6 -5 12 -11 12 -6 0 -5 5 2 12 13 13 16
32 4 24 -4 -2 -14 4 -21 16 -7 11 -8 17 -3 14 6 -3 13 1 16 10 9 23 7 31 -3
15 -7 -10 -12 -11 -27 -1 -18 11 -18 11 1 5 15 -5 17 -3 8 6 -6 6 -9 19 -5 28
5 14 4 14 -13 1 -13 -10 -16 -11 -11 -2 5 9 1 19 -13 29 -17 11 -19 18 -11 28
8 10 8 15 0 20 -6 4 -9 13 -6 21 3 8 0 11 -10 7 -11 -4 -12 -9 -4 -18 8 -10 8
-15 -1 -21 -7 -4 -9 -3 -6 3 4 6 0 16 -8 23 -8 7 -15 20 -14 29 0 10 2 11 6 4
2 -7 9 -13 15 -13 6 0 5 6 -2 15 -9 11 -16 12 -26 4 -10 -8 -12 -6 -9 10 3 15
0 18 -13 14 -15 -6 -16 -5 -2 12 8 10 10 16 4 12 -6 -3 -17 3 -24 14 -15 20
-36 27 -24 7 4 -6 3 -8 -3 -5 -5 3 -8 20 -7 36 1 17 -2 28 -7 25 -5 -3 -7 -10
-4 -15 4 -5 1 -9 -5 -9 -7 0 -9 8 -5 21 5 13 3 19 -3 15 -5 -3 -12 4 -15 15
-4 13 -10 18 -18 13 -8 -4 -10 -3 -5 4 6 10 -4 16 -25 14 -3 -1 -6 5 -6 13 0
8 4 12 9 9 4 -3 8 1 8 8 0 8 -13 13 -36 14 -26 0 -31 -2 -19 -8 8 -5 13 -14 9
-19 -4 -6 -11 -6 -20 2 -11 9 -14 8 -14 -7 0 -16 -2 -16 -10 -4 -10 16 -60 22
-57 7 1 -5 -5 -12 -13 -14 -9 -3 -11 -1 -5 4 12 10 16 75 4 67 -5 -3 -6 2 -3
11 6 14 8 14 19 -2 12 -16 13 -14 8 10 -4 19 1 35 13 49 11 12 13 18 6 14 -7
-4 -15 -1 -18 8 -3 9 -11 13 -18 9 -6 -4 -4 2 4 12 9 11 10 16 3 11 -8 -4 -13
-1 -13 9 0 9 5 13 10 10 16 -10 11 1 -7 16 -10 8 -14 9 -10 2 4 -6 3 -15 -3
-18 -6 -4 -10 -3 -9 2 4 24 -2 63 -11 63 -5 0 -7 -8 -4 -17 4 -14 2 -13 -7 2
-18 28 -21 55 -6 51 6 -1 9 -1 4 1 -4 3 -5 9 -1 14 8 13 -10 11 -24 -3 -7 -7
-12 -8 -12 -4 0 5 6 14 14 20 10 8 11 17 5 31 -9 18 -9 18 -5 -3 4 -19 2 -21
-10 -11 -8 7 -14 7 -14 1 0 -5 -6 -12 -13 -15 -8 -3 -14 1 -14 9 0 7 5 10 10
7 6 -4 7 -1 2 6 -5 9 -15 5 -35 -14 -20 -19 -30 -23 -35 -14 -6 8 -4 10 5 4 9
-5 11 -4 6 4 -6 9 -11 9 -23 -1 -14 -11 -15 -10 -10 12 4 14 4 19 1 12 -5 -10
-9 -10 -22 0 -15 11 -15 11 -4 -4 10 -12 10 -18 1 -24 -7 -4 -10 -3 -7 2 7 11
-17 35 -26 27 -3 -4 -6 1 -6 10 0 9 -5 17 -11 17 -5 0 -7 -6 -3 -12 5 -9 2 -9
-9 1 -9 7 -17 20 -17 28 0 10 -7 12 -22 8 -13 -3 -18 -3 -13 2 12 10 16 45 4
37 -8 -4 -14 26 -10 49 1 5 -3 6 -8 2 -6 -3 -8 -12 -4 -20 3 -8 0 -15 -7 -15
-6 0 -8 5 -5 10 3 6 1 10 -6 10 -7 0 -5 9 7 22 15 19 16 20 2 9 -10 -7 -18
-10 -18 -5 0 5 -12 17 -25 27 -23 17 -24 17 -18 0 6 -15 5 -16 -9 -3 -9 8 -14
18 -11 23 2 4 -2 7 -11 7 -8 0 -17 -6 -19 -12 -3 -7 -6 -4 -7 7 -1 19 -1 19
-14 2 -8 -10 -23 -19 -34 -20 -13 -1 -18 -6 -14 -16 4 -10 1 -12 -9 -6 -11 6
-11 5 -2 -5 8 -8 9 -20 3 -36 -6 -15 -5 -26 2 -30 7 -4 8 -3 4 4 -11 18 0 14
15 -5 8 -9 9 -14 3 -10 -7 4 -14 0 -18 -8 -3 -8 -2 -14 2 -12 4 1 7 -2 7 -8 0
-5 -4 -9 -10 -7 -5 1 -2 -4 8 -12 13 -10 17 -21 12 -37 -5 -14 -4 -19 4 -15 6
4 11 2 11 -3 0 -14 -37 -14 -45 -1 -4 6 -11 7 -17 4 -7 -4 -8 -2 -4 5 5 8 12
9 20 2 8 -7 12 -5 13 9 1 11 -2 22 -8 25 -5 3 -6 -1 -3 -9 10 -25 -47 -9 -76
21 -16 18 -18 22 -5 12 18 -13 19 -13 6 4 -11 14 -16 15 -29 5 -13 -11 -15
-10 -9 5 4 10 3 16 -2 12 -5 -3 -11 -2 -14 2 -2 5 -2 3 -1 -4 2 -7 -3 -10 -11
-6 -8 3 -12 10 -8 16 3 6 1 7 -5 3 -7 -4 -12 -15 -12 -24 0 -13 -2 -13 -14 3
-13 18 -51 32 -40 14 3 -5 9 -7 14 -4 5 3 11 1 14 -4 4 -5 -11 -7 -35 -5 -22
3 -39 1 -36 -3 3 -5 -3 -10 -14 -10 -11 -1 -17 2 -14 8 4 5 1 9 -4 9 -6 0 -11
-7 -11 -16 0 -8 -5 -12 -10 -9 -6 4 -18 1 -27 -7 -12 -9 -15 -9 -9 0 4 6 3 12
-2 12 -6 0 -13 -7 -16 -16 -5 -12 -10 -13 -19 -5 -10 8 -17 7 -25 -1 -7 -7
-12 -8 -12 -3 0 5 -7 0 -15 -11 -9 -12 -13 -13 -10 -4 4 11 -1 16 -14 16 -15
0 -17 -3 -9 -13 8 -11 7 -12 -8 -7 -10 4 -26 12 -34 18 -13 9 -13 9 -2 -5 10
-14 10 -18 -4 -23 -20 -8 -36 2 -28 17 3 7 -1 4 -9 -6 -11 -14 -16 -15 -20 -5
-4 10 -6 10 -6 1 -1 -7 -6 -13 -12 -13 -5 0 -7 6 -3 13 6 9 4 9 -8 -1 -13 -10
-17 -10 -21 0 -3 7 -6 2 -7 -12 -1 -23 -2 -23 -10 -5 -5 11 -9 14 -9 7 -1 -7
-5 -11 -10 -8 -5 4 -21 2 -36 -4 -24 -9 -27 -8 -21 7 5 15 4 15 -9 -1 -11 -14
-15 -16 -15 -5 0 12 -2 12 -10 -1 -7 -11 -10 -11 -10 -2 0 8 -5 10 -12 5 -19
-11 -71 -11 -85 0 -7 5 -22 7 -32 4 -15 -4 -19 0 -16 14 2 11 0 19 -6 19 -5 0
-9 -8 -9 -17 -1 -17 -1 -17 -11 0 -6 9 -14 15 -20 12 -5 -4 -9 -1 -9 5 0 6 -4
9 -9 5 -5 -3 -16 2 -24 10 -19 18 -31 20 -21 3 4 -7 -2 -5 -13 5 -11 9 -23 14
-26 10 -4 -3 -7 -1 -7 6 0 8 8 11 20 8 11 -3 18 -1 14 4 -3 5 -21 7 -40 5 -20
-3 -32 -1 -28 5 3 5 10 6 16 3 6 -4 8 -2 5 4 -4 5 -16 8 -27 5 -12 -3 -20 0
-20 7 0 7 -7 10 -15 6 -9 -3 -18 1 -21 9 -3 8 -15 17 -25 20 -16 5 -18 10 -8
21 10 12 7 14 -12 12 -27 -3 -34 23 -9 34 11 5 9 7 -7 7 -13 1 -23 -5 -23 -11
0 -9 -3 -8 -10 2 -5 9 -5 19 1 26 7 8 6 14 -1 19 -6 3 -8 11 -4 16 3 6 12 3
21 -8 11 -13 11 -11 -1 10 -12 20 -13 27 -4 27 10 0 10 3 -1 9 -8 5 -10 14 -6
21 5 8 4 11 -3 6 -6 -3 -14 -1 -18 5 -4 8 -3 9 4 5 6 -3 16 3 23 15 10 20 9
21 -7 15 -18 -6 -18 -6 0 8 12 10 16 21 12 33 -6 14 -5 16 5 6 7 -7 18 -13 23
-13 6 0 4 5 -4 10 -13 8 -12 11 5 25 11 9 15 14 9 11 -6 -3 -11 1 -11 8 0 7
10 12 21 11 12 -1 26 5 32 13 9 13 11 12 11 -2 0 -15 -10 -21 -31 -17 -5 1 -4
-5 4 -13 13 -17 25 -22 16 -7 -3 5 1 11 9 15 8 3 17 1 21 -5 4 -7 10 -6 19 1
7 6 21 8 31 4 14 -4 15 -3 5 4 -15 11 -4 21 21 17 10 -2 16 2 15 8 -1 7 3 11
10 10 8 -2 10 4 6 14 -4 11 -3 14 5 9 7 -4 19 0 28 9 15 15 18 15 36 -1 18
-17 19 -17 12 2 -7 17 -6 18 11 4 10 -8 16 -10 12 -4 -4 7 0 14 8 18 8 3 17 0
21 -6 4 -7 3 -8 -4 -4 -18 11 -14 0 6 -15 9 -7 14 -10 10 -5 -8 10 20 41 29
32 3 -3 0 -14 -8 -23 -13 -16 -12 -17 4 -4 14 11 17 11 17 0 0 -11 2 -11 10 1
9 13 11 13 21 0 9 -12 10 -12 5 4 -5 14 -2 17 10 12 8 -3 18 -6 20 -6 3 0 2
-5 -2 -12 -4 -7 -3 -8 5 -4 6 4 9 12 6 17 -4 5 -3 9 2 10 4 0 16 2 26 4 14 3
17 -1 12 -13 -5 -13 -1 -12 16 4 15 12 20 14 15 4 -6 -12 -5 -12 6 1 7 9 19
14 27 11 7 -2 17 2 22 9 7 11 9 11 9 1 0 -7 5 -10 10 -7 6 4 8 9 6 13 -2 4 9
7 24 8 22 1 27 -3 23 -15 -4 -13 -3 -13 5 -2 5 7 14 11 20 7 6 -3 14 -1 18 5
4 7 3 9 -3 6 -5 -3 -10 0 -10 8 0 8 5 11 11 7 17 -10 59 -9 74 2 9 6 12 6 10
-4 -2 -7 3 -15 11 -18 10 -3 11 0 5 9 -6 11 -3 10 11 -1 10 -8 16 -10 12 -3
-4 6 -2 15 4 19 8 4 9 3 5 -4 -4 -7 -2 -12 4 -12 6 0 8 -4 5 -10 -3 -6 1 -7 9
-4 9 3 13 10 10 16 -3 5 3 4 14 -3 12 -7 18 -18 14 -24 -3 -5 3 -3 13 5 11 9
16 10 11 3 -5 -9 0 -13 16 -13 13 0 30 -6 37 -12 11 -10 13 -10 7 0 -4 6 -2
12 3 12 6 0 11 -5 11 -12 0 -6 3 -8 7 -5 3 4 16 -1 27 -10 20 -17 20 -17 7 0
-16 20 2 24 21 4 10 -12 15 -11 28 6 14 16 17 17 17 4 0 -9 -4 -14 -9 -11 -4
3 -8 0 -8 -5 0 -6 9 -11 19 -11 11 0 21 -5 23 -10 2 -6 13 -12 25 -13 12 0 21
-6 20 -11 -1 -6 4 -11 11 -12 6 -1 15 -3 20 -4 4 -1 9 -2 12 -2 16 2 6 -38
-11 -43 -11 -4 -17 -11 -13 -16 3 -6 12 -5 22 3 12 10 14 10 8 1 -4 -7 -3 -13
3 -13 5 0 12 6 15 13 3 6 4 3 3 -8 -1 -12 3 -19 11 -17 10 2 10 -2 2 -17 -7
-14 -7 -22 2 -27 7 -4 8 -3 4 4 -4 7 -4 12 1 12 9 0 47 -61 45 -72 -2 -9 26
-4 35 7 4 4 2 5 -6 0 -10 -6 -12 -4 -6 5 5 8 4 11 -1 7 -5 -3 -10 3 -10 14 0
16 3 15 22 -9 16 -19 19 -31 12 -39 -13 -16 -3 -17 23 -3 15 8 23 7 34 -4 10
-9 11 -17 5 -21 -5 -3 -10 -2 -10 4 0 5 -10 8 -21 6 -28 -6 -36 -14 -13 -13
11 0 24 0 29 -2 26 -7 36 1 29 22 -6 21 -5 22 11 8 11 -8 16 -10 12 -4 -4 7 0
17 8 24 8 7 15 9 15 5 0 -5 8 -1 18 8 19 17 33 14 28 -6 -2 -7 -1 -9 1 -4 3 4
11 7 19 7 8 0 14 5 14 11 0 5 -4 8 -9 5 -5 -3 -15 2 -22 12 -13 15 -12 16 3 4
9 -7 19 -9 22 -4 6 11 46 10 64 -1 7 -5 14 -2 18 7 3 9 13 16 21 16 8 0 11 5
7 12 -4 7 -3 8 5 4 6 -4 18 -3 26 4 9 7 15 8 20 0 3 -5 5 -10 3 -11 -2 0 -10
-2 -20 -4 -9 -2 -24 -8 -35 -15 -14 -9 -15 -10 -1 -6 9 3 19 0 22 -7 2 -7 5
-4 5 6 1 10 5 16 10 12 5 -3 12 -1 16 5 4 6 11 7 17 4 6 -4 6 2 -1 15 -10 17
-9 20 4 15 8 -4 15 -10 15 -15 0 -5 5 -9 10 -9 7 0 7 6 0 20 -9 17 -8 20 11
20 14 0 19 5 16 14 -4 10 2 13 25 12 24 -2 27 0 15 8 -11 9 -12 14 -2 23 7 7
16 9 21 5 4 -4 3 0 -2 8 -13 24 -13 37 2 37 11 0 11 -3 1 -16 -10 -14 -10 -14
5 -3 9 7 15 22 13 33 -2 10 1 19 6 19 6 0 7 5 3 12 -5 7 -2 9 8 5 14 -5 15 -1
8 25 -8 26 -7 28 6 17 12 -10 15 -10 12 2 -2 8 -7 18 -13 22 -6 5 0 7 13 4 19
-5 21 -3 11 9 -6 7 -16 11 -22 7 -6 -3 -7 -1 -3 6 4 6 12 9 17 6 5 -4 9 -1 9
5 0 6 5 8 13 4 9 -6 9 -4 -1 8 -10 13 -10 18 0 29 18 19 23 53 7 43 -8 -4 -10
-3 -5 4 4 7 13 12 20 12 8 0 20 8 27 18 11 14 11 15 -1 5 -8 -7 -21 -13 -29
-13 -11 0 -10 4 5 15 11 8 14 15 7 15 -7 0 -13 5 -13 11 0 5 5 7 11 3 9 -5 10
1 5 20 -6 24 -5 26 8 14 7 -7 12 -16 9 -20 -2 -4 3 -5 12 -1 9 3 13 9 8 12
-12 9 -14 31 -2 31 5 0 7 5 3 11 -4 7 2 6 17 -2 23 -12 23 -11 9 6 -13 17 -13
18 0 13 11 -4 16 1 17 13 1 12 -3 17 -10 13 -7 -4 -8 -3 -4 2 5 5 14 9 19 9 6
0 13 6 16 14 3 9 0 11 -8 6 -7 -4 -4 4 5 18 20 31 20 37 5 47 -6 4 -13 19 -16
34 -2 15 -1 25 4 22 5 -3 9 1 9 9 0 12 -3 12 -14 3 -11 -9 -16 -9 -23 1 -4 8
-14 10 -21 7 -8 -4 -6 -1 4 7 18 15 24 32 7 22 -6 -4 -19 -1 -28 7 -16 12 -16
11 -2 -7 14 -18 14 -19 -2 -7 -9 8 -23 10 -29 6 -7 -4 -9 -3 -6 3 4 6 -2 18
-12 28 -11 9 -18 25 -16 35 2 10 -3 21 -11 24 -10 4 -12 2 -8 -6 5 -7 2 -9 -8
-5 -9 3 -21 0 -27 -6 -9 -9 -11 -7 -6 8 6 18 5 17 -12 -3 l-19 -23 -27 25
c-16 15 -25 26 -21 26 4 0 17 -9 29 -20 17 -16 22 -17 22 -6 0 8 -4 13 -8 11
-3 -3 -12 2 -19 10 -7 8 -19 15 -27 15 -11 0 -8 6 8 21 13 11 17 17 9 13 -27
-15 -38 -12 -33 7 3 11 0 19 -6 19 -7 0 -9 -4 -6 -10 4 -6 -1 -7 -11 -3 -14 5
-13 8 7 20 20 11 20 13 4 8 -16 -4 -21 0 -22 15 -1 13 2 18 9 14 7 -4 8 -2 4
4 -5 9 -13 9 -29 1 -18 -9 -20 -9 -9 2 16 17 15 30 -2 23 -8 -3 -17 0 -22 7
-5 8 -3 10 7 5 8 -4 6 -1 -3 7 -10 8 -18 19 -18 26 0 6 -5 11 -10 11 -6 0 -15
10 -20 23 -6 16 -9 17 -9 5 -1 -9 -5 -20 -11 -23 -5 -3 -7 0 -4 9 8 20 -29 39
-46 23 -10 -9 -11 -9 -6 0 4 7 -1 12 -11 12 -44 1 -54 5 -49 18 3 8 2 12 -3 8
-5 -3 -12 1 -15 7 -3 7 -3 2 0 -12 6 -24 5 -24 -8 -6 -8 10 -21 17 -29 14 -8
-3 -26 1 -41 8 -15 8 -35 11 -45 7 -16 -6 -17 -5 -3 12 14 17 13 18 -2 12 -10
-3 -18 -2 -18 3 0 5 -7 6 -17 3 -11 -5 -14 -3 -8 6 6 10 2 11 -15 6 -14 -4
-20 -3 -16 3 3 5 -1 12 -9 15 -10 4 -12 1 -8 -10 4 -11 2 -14 -5 -9 -7 4 -12
15 -13 24 -1 11 -4 8 -9 -8 -8 -25 -8 -25 -9 5 -1 25 -3 27 -12 13 -14 -25
-29 -22 -30 5 0 12 -3 16 -6 10 -2 -7 -9 -13 -15 -13 -6 0 -7 7 -4 16 3 8 2
12 -4 9 -6 -3 -10 -1 -10 4 0 6 -5 11 -12 11 -9 0 -9 -3 0 -12 7 -7 12 -16 12
-21 0 -5 -9 2 -20 16 -11 14 -20 29 -20 34 0 4 5 1 10 -7 8 -12 10 -10 10 8 0
15 -4 21 -12 16 -7 -5 -8 -3 -2 7 16 26 12 37 -12 34 -14 -1 -27 2 -31 8 -3 6
-1 7 5 3 7 -4 12 -2 12 3 0 6 -5 11 -11 11 -5 0 -8 4 -5 9 3 5 -2 8 -12 7 -10
0 -16 6 -16 17 1 9 -2 17 -7 17 -5 0 -9 -9 -9 -20 0 -11 -4 -20 -9 -20 -5 0
-7 9 -4 19 3 13 -2 23 -15 30 -18 10 -20 8 -17 -14z m25 -5 c0 -5 -2 -10 -4
-10 -3 0 -8 5 -11 10 -3 6 -1 10 4 10 6 0 11 -4 11 -10z m104 -78 c3 -5 -1 -9
-9 -9 -8 0 -12 4 -9 9 3 4 7 8 9 8 2 0 6 -4 9 -8z m-304 -28 c0 -8 -5 -12 -10
-9 -6 4 -8 11 -5 16 9 14 15 11 15 -7z m-700 -220 c0 -8 -19 -13 -24 -6 -3 5
1 9 9 9 8 0 15 -2 15 -3z m-223 -47 c0 -7 -9 -13 -19 -13 -21 0 -24 12 -5 19
20 9 24 8 24 -6z m-61 -22 c-9 -9 -16 -13 -16 -8 0 12 22 34 28 28 2 -2 -3
-11 -12 -20z m-166 -65 c3 -1 9 -2 13 -1 5 1 6 -3 2 -9 -5 -8 -11 -8 -19 -1
-7 6 -15 8 -18 5 -3 -3 -9 -1 -12 4 -5 9 14 9 34 2z m-331 -273 c0 -9 -2 -8
-6 1 -2 6 -10 9 -15 6 -7 -4 -8 -2 -4 5 9 13 26 5 25 -12z m-92 -148 c-9 -6
-14 -15 -11 -21 5 -7 2 -8 -5 -4 -9 6 -8 13 5 27 9 11 20 17 23 13 3 -3 -2
-10 -12 -15z m-80 -101 c2 -17 0 -19 -7 -8 -5 8 -6 18 -4 22 8 12 10 10 11
-14z m1032 -294 c-6 -8 -14 -12 -17 -10 -3 3 -17 -4 -33 -14 -29 -21 -45 -15
-28 10 7 13 9 13 9 0 0 -13 1 -13 10 0 5 8 10 11 10 5 0 -5 7 -1 15 9 8 11 15
14 15 7 0 -7 5 -9 10 -6 6 4 7 11 4 17 -4 7 -2 8 5 4 9 -6 9 -11 0 -22z m-179
-54 c0 -5 -5 -10 -11 -10 -5 0 -7 5 -4 10 3 6 8 10 11 10 2 0 4 -4 4 -10z
m-989 -89 c-7 -5 -11 -14 -7 -20 5 -7 1 -9 -9 -5 -12 5 -13 9 -4 20 6 8 17 14
23 14 6 0 5 -4 -3 -9z m2293 -37 c3 -8 2 -12 -4 -9 -6 3 -10 10 -10 16 0 14 7
11 14 -7z m-1341 -29 c-7 -21 -12 -19 -10 4 0 11 5 18 9 15 4 -3 5 -11 1 -19z
m-988 -23 c-3 -3 -11 0 -18 7 -9 10 -8 11 6 5 10 -3 15 -9 12 -12z m65 -306
c0 -2 -7 -7 -16 -10 -8 -3 -12 -2 -9 4 6 10 25 14 25 6z m2765 -176 c3 -5 -1
-10 -10 -10 -9 0 -13 5 -10 10 3 6 8 10 10 10 2 0 7 -4 10 -10z m12 -149 c0
-11 -5 -18 -9 -15 -4 3 -5 11 -1 19 7 21 12 19 10 -4z m-2645 -68 c-10 -4 -10
-8 -1 -19 7 -8 7 -14 1 -14 -12 0 -23 26 -15 34 4 3 11 6 17 5 6 0 5 -3 -2 -6z
m48 -163 c0 -5 -2 -10 -4 -10 -3 0 -8 5 -11 10 -3 6 -1 10 4 10 6 0 11 -4 11
-10z m240 -154 c0 -3 -4 -8 -10 -11 -5 -3 -10 -1 -10 4 0 6 5 11 10 11 6 0 10
-2 10 -4z m203 -110 c4 -10 1 -13 -8 -9 -8 3 -12 9 -9 14 7 12 11 11 17 -5z
m52 -5 c3 -5 2 -12 -3 -15 -5 -3 -9 1 -9 9 0 17 3 19 12 6z m1158 -265 c4 -10
1 -13 -8 -9 -8 3 -12 9 -9 14 7 12 11 11 17 -5z m-24 -33 c-12 -15 -12 -16 6
-9 15 5 17 4 8 -5 -6 -6 -16 -8 -22 -5 -12 8 -3 36 11 36 6 0 4 -8 -3 -17z
m-1603 -325 c5 -7 3 -8 -6 -3 -10 6 -12 4 -7 -8 3 -9 2 -19 -2 -21 -6 -4 -8
30 -2 42 3 5 10 1 17 -10z m-40 -15 c-3 -17 -26 -32 -26 -16 0 8 20 33 26 33
1 0 1 -8 0 -17z m-66 -79 c0 -8 -19 -13 -24 -6 -3 5 1 9 9 9 8 0 15 -2 15 -3z
m3005 -284 c3 -6 -1 -7 -9 -4 -18 7 -21 14 -7 14 6 0 13 -4 16 -10z m-3307
-55 c-3 -3 -9 2 -12 12 -6 14 -5 15 5 6 7 -7 10 -15 7 -18z m-21 -260 c0 -8
-4 -12 -9 -9 -5 3 -6 10 -3 15 9 13 12 11 12 -6z m250 -124 c0 -11 -5 -18 -9
-15 -4 3 -5 11 -1 19 7 21 12 19 10 -4z m53 -15 c0 -2 -8 -10 -17 -17 -16 -13
-17 -12 -4 4 13 16 21 21 21 13z m2140 -61 c-7 -9 -15 -13 -19 -10 -3 3 1 10
9 15 21 14 24 12 10 -5z m-1875 -24 c-3 -6 -11 -8 -17 -5 -6 4 -5 9 3 15 16
10 23 4 14 -10z m1669 -37 c3 -8 2 -12 -4 -9 -6 3 -10 10 -10 16 0 14 7 11 14
-7z m-359 -34 c3 -5 1 -10 -4 -10 -6 0 -11 5 -11 10 0 6 2 10 4 10 3 0 8 -4
11 -10z m65 6 c0 -2 -7 -7 -16 -10 -8 -3 -12 -2 -9 4 6 10 25 14 25 6z m-365
-15 c-9 -8 -36 -10 -30 -2 2 4 11 8 20 8 8 0 13 -3 10 -6z m270 -1 c-3 -5 -11
-10 -16 -10 -6 0 -7 5 -4 10 3 6 11 10 16 10 6 0 7 -4 4 -10z"/>
<path d="M3016 4908 c3 -5 10 -6 15 -3 13 9 11 12 -6 12 -8 0 -12 -4 -9 -9z"/>
<path d="M2810 4821 c-8 -6 -19 -7 -25 -4 -5 3 -4 0 3 -8 10 -11 15 -10 29 4
19 19 16 22 -7 8z"/>
<path d="M2640 4780 c8 -5 20 -10 25 -10 6 0 3 5 -5 10 -8 5 -19 10 -25 10 -5
0 -3 -5 5 -10z"/>
<path d="M2555 4751 c-3 -5 0 -13 6 -17 7 -4 9 -3 5 4 -3 5 0 13 6 15 9 4 10
6 1 6 -6 1 -14 -3 -18 -8z"/>
<path d="M2390 4660 c-6 -11 -8 -20 -6 -20 3 0 10 9 16 20 6 11 8 20 6 20 -3
0 -10 -9 -16 -20z"/>
<path d="M2261 4653 c-1 -17 16 -25 25 -12 4 7 3 9 -4 5 -5 -3 -13 0 -15 6 -4
9 -6 10 -6 1z"/>
<path d="M3585 4650 c-3 -6 1 -7 9 -4 18 7 21 14 7 14 -6 0 -13 -4 -16 -10z"/>
<path d="M2206 4633 c-6 -14 -5 -15 5 -6 7 7 10 15 7 18 -3 3 -9 -2 -12 -12z"/>
<path d="M2060 4616 c0 -2 7 -7 16 -10 8 -3 12 -2 9 4 -6 10 -25 14 -25 6z"/>
<path d="M3716 4607 c3 -10 9 -15 12 -12 3 3 0 11 -7 18 -10 9 -11 8 -5 -6z"/>
<path d="M2015 4599 c-4 -6 -5 -12 -2 -15 2 -3 7 2 10 11 7 17 1 20 -8 4z"/>
<path d="M1630 4460 c0 -5 5 -10 10 -10 6 0 10 5 10 10 0 6 -4 10 -10 10 -5 0
-10 -4 -10 -10z"/>
<path d="M4006 4309 c9 -10 21 -16 25 -13 13 8 11 14 -3 12 -7 -2 -12 2 -11 8
1 6 -5 11 -13 11 -12 0 -11 -4 2 -18z"/>
<path d="M4125 4201 c-3 -5 0 -13 6 -17 7 -4 9 -3 5 4 -3 5 0 13 6 15 9 4 10
6 1 6 -6 1 -14 -3 -18 -8z"/>
<path d="M3996 3842 c-2 -4 4 -8 14 -8 10 0 16 4 14 8 -3 4 -9 8 -14 8 -5 0
-11 -4 -14 -8z"/>
<path d="M1153 3773 c-15 -5 -17 -23 -4 -23 5 0 11 7 15 15 3 8 4 15 3 14 -1
0 -8 -3 -14 -6z"/>
<path d="M2826 3728 c3 -5 10 -6 15 -3 13 9 11 12 -6 12 -8 0 -12 -4 -9 -9z"/>
<path d="M1116 3702 c-2 -4 -1 -14 4 -22 7 -11 9 -9 7 8 -1 24 -3 26 -11 14z"/>
<path d="M2316 3673 c-6 -14 -5 -15 5 -6 7 7 10 15 7 18 -3 3 -9 -2 -12 -12z"/>
<path d="M3171 3650 c0 -8 4 -22 9 -30 8 -12 10 -12 10 -1 0 11 4 11 18 -2 10
-10 19 -24 19 -32 0 -10 -6 -13 -19 -9 -19 6 -25 -10 -8 -21 6 -3 10 -12 10
-18 0 -7 -4 -6 -10 3 -7 10 -10 11 -10 2 0 -7 7 -15 15 -18 8 -4 12 -11 8 -18
-4 -8 -2 -8 7 1 7 6 19 9 26 6 8 -3 14 0 14 5 0 6 -9 9 -20 7 -11 -2 -18 0
-15 5 8 13 48 3 61 -15 10 -14 12 -14 18 0 3 9 2 14 -3 11 -5 -3 -12 1 -15 10
-3 8 -10 13 -15 9 -5 -3 -12 -1 -16 5 -4 6 -11 8 -16 4 -6 -3 -5 3 2 14 7 12
16 19 20 16 15 -9 18 14 4 26 -12 10 -15 9 -15 -5 0 -20 -15 -11 -15 8 -1 7
-6 11 -13 10 -7 -2 -12 2 -12 8 0 6 -6 9 -14 6 -9 -4 -17 1 -19 11 -4 13 -5
13 -6 2z"/>
<path d="M3855 3541 c-3 -5 -2 -12 3 -15 5 -3 9 1 9 9 0 17 -3 19 -12 6z"/>
<path d="M2954 3516 c-3 -8 -14 -13 -25 -11 -10 2 -21 -1 -25 -6 -4 -6 -11 -6
-20 2 -10 8 -14 8 -14 0 0 -6 5 -11 10 -11 6 0 10 -8 11 -17 0 -15 2 -15 7 -3
8 17 72 22 72 6 0 -6 5 -4 10 4 8 12 10 12 10 1 0 -11 3 -11 15 -1 12 10 18
10 33 -1 9 -7 14 -9 10 -5 -4 5 -4 14 2 20 5 7 5 17 -2 26 -8 13 -9 12 -5 -2
9 -26 -6 -31 -20 -6 -7 13 -12 17 -13 9 0 -8 -6 -11 -16 -7 -8 3 -12 2 -9 -3
3 -5 1 -12 -5 -16 -9 -6 -14 7 -11 28 2 13 -9 8 -15 -7z m61 -16 c-3 -5 -12
-10 -18 -10 -7 0 -6 4 3 10 19 12 23 12 15 0z"/>
<path d="M2814 3512 c3 -5 0 -13 -6 -15 -9 -4 -10 -6 -1 -6 17 -1 25 16 12 25
-7 4 -9 3 -5 -4z"/>
<path d="M2825 3479 c-3 -4 2 -6 10 -5 21 3 28 13 10 13 -9 0 -18 -4 -20 -8z"/>
<path d="M1035 3471 c-3 -5 -2 -12 3 -15 5 -3 9 1 9 9 0 17 -3 19 -12 6z"/>
<path d="M3626 3469 c3 -6 8 -8 11 -5 3 3 15 0 27 -6 16 -8 18 -8 10 1 -14 15
-57 24 -48 10z"/>
<path d="M3562 3448 c-7 -7 -18 -13 -24 -13 -6 0 -12 -11 -13 -24 -2 -23 -1
-23 12 -5 8 10 17 18 21 17 4 -2 7 0 7 5 0 4 4 13 8 20 5 6 7 12 5 12 -2 0
-10 -6 -16 -12z"/>
<path d="M3625 3440 c-3 -6 1 -7 9 -4 18 7 21 14 7 14 -6 0 -13 -4 -16 -10z"/>
<path d="M2045 3380 c-3 -6 1 -7 9 -4 18 7 21 14 7 14 -6 0 -13 -4 -16 -10z"/>
<path d="M2075 3340 c-3 -6 1 -7 9 -4 18 7 21 14 7 14 -6 0 -13 -4 -16 -10z"/>
<path d="M2140 3279 c0 -5 5 -7 10 -4 6 3 10 8 10 11 0 2 -4 4 -10 4 -5 0 -10
-5 -10 -11z"/>
<path d="M3245 3199 c-4 -6 -5 -12 -2 -15 2 -3 7 2 10 11 7 17 1 20 -8 4z"/>
<path d="M2406 3178 c3 -5 10 -6 15 -3 13 9 11 12 -6 12 -8 0 -12 -4 -9 -9z"/>
<path d="M3696 3153 c-6 -14 -5 -15 5 -6 7 7 10 15 7 18 -3 3 -9 -2 -12 -12z"/>
<path d="M1125 2960 c3 -5 8 -10 11 -10 2 0 4 5 4 10 0 6 -5 10 -11 10 -5 0
-7 -4 -4 -10z"/>
<path d="M1135 2840 c-3 -6 1 -7 9 -4 18 7 21 14 7 14 -6 0 -13 -4 -16 -10z"/>
<path d="M3860 2840 c0 -5 9 -8 20 -7 21 1 18 10 -5 13 -8 1 -15 -2 -15 -6z"/>
<path d="M4011 2807 c2 -1 16 -12 30 -25 19 -16 26 -18 26 -8 0 8 -5 14 -11
13 -6 -1 -10 3 -9 8 1 6 -8 12 -19 12 -11 1 -19 1 -17 0z"/>
<path d="M1236 2607 c3 -10 9 -15 12 -12 3 3 0 11 -7 18 -10 9 -11 8 -5 -6z"/>
<path d="M1332 2527 c7 -7 22 -16 33 -20 16 -6 15 -3 -5 13 -28 22 -49 27 -28
7z"/>
<path d="M4230 2516 c7 -7 13 -7 20 0 6 6 3 10 -10 10 -13 0 -16 -4 -10 -10z"/>
<path d="M1438 2423 c7 -3 16 -2 19 1 4 3 -2 6 -13 5 -11 0 -14 -3 -6 -6z"/>
<path d="M1652 2317 c10 -8 14 -18 10 -22 -4 -5 -1 -5 6 -1 17 10 15 14 -10
26 -21 10 -21 10 -6 -3z"/>
<path d="M4315 2281 c-6 -11 13 -26 22 -17 4 3 1 6 -6 6 -7 0 -9 5 -6 10 3 6
4 10 1 10 -3 0 -7 -4 -11 -9z"/>
<path d="M2473 2164 c0 -11 3 -11 14 -2 11 9 17 8 25 -3 8 -12 9 -12 5 1 -5
19 -44 22 -44 4z"/>
<path d="M2828 2113 c7 -3 16 -2 19 1 4 3 -2 6 -13 5 -11 0 -14 -3 -6 -6z"/>
<path d="M2866 2113 c-3 -4 -6 -11 -6 -17 0 -6 4 -5 9 3 5 7 14 10 20 7 6 -4
9 -10 7 -14 -2 -4 6 -7 19 -7 21 0 22 1 7 16 -17 16 -46 22 -56 12z"/>
<path d="M2924 1933 c2 -9 8 -18 15 -19 6 -1 7 0 1 3 -5 2 -8 9 -5 13 3 5 1
11 -4 14 -5 4 -8 -2 -7 -11z"/>
<path d="M4236 1942 c-3 -5 1 -9 9 -9 8 0 12 4 9 9 -3 4 -7 8 -9 8 -2 0 -6 -4
-9 -8z"/>
<path d="M4226 1882 c-2 -4 4 -8 14 -8 10 0 16 4 14 8 -3 4 -9 8 -14 8 -5 0
-11 -4 -14 -8z"/>
<path d="M2935 1861 c-3 -5 -2 -12 3 -15 5 -3 9 1 9 9 0 17 -3 19 -12 6z"/>
<path d="M1455 1740 c3 -5 8 -10 11 -10 2 0 4 5 4 10 0 6 -5 10 -11 10 -5 0
-7 -4 -4 -10z"/>
<path d="M1390 1715 c-11 -13 -10 -14 4 -9 9 3 16 10 16 15 0 13 -6 11 -20 -6z"/>
<path d="M2835 1620 c-3 -5 -1 -10 4 -10 6 0 11 5 11 10 0 6 -2 10 -4 10 -3 0
-8 -4 -11 -10z"/>
<path d="M1910 1559 c0 -5 5 -7 10 -4 6 3 10 8 10 11 0 2 -4 4 -10 4 -5 0 -10
-5 -10 -11z"/>
<path d="M2670 1528 c-12 -22 -12 -22 6 -6 10 10 15 20 12 24 -4 3 -12 -5 -18
-18z"/>
<path d="M2360 1490 c-9 -6 -10 -10 -3 -10 6 0 15 5 18 10 8 12 4 12 -15 0z"/>
<path d="M4245 1480 c-3 -5 -1 -10 4 -10 6 0 11 5 11 10 0 6 -2 10 -4 10 -3 0
-8 -4 -11 -10z"/>
<path d="M875 1280 c3 -5 8 -10 11 -10 2 0 4 5 4 10 0 6 -5 10 -11 10 -5 0 -7
-4 -4 -10z"/>
<path d="M4200 1226 c0 -2 7 -7 16 -10 8 -3 12 -2 9 4 -6 10 -25 14 -25 6z"/>
<path d="M3564 882 c4 -3 14 -7 22 -8 9 -1 13 0 10 4 -4 3 -14 7 -22 8 -9 1
-13 0 -10 -4z"/>
<path d="M1077 839 c4 -13 8 -18 11 -10 2 7 -1 18 -6 23 -8 8 -9 4 -5 -13z"/>
<path d="M1190 766 c0 -2 7 -7 16 -10 8 -3 12 -2 9 4 -6 10 -25 14 -25 6z"/>
<path d="M1606 747 c3 -8 11 -14 19 -14 20 0 19 4 -5 17 -15 8 -18 8 -14 -3z"/>
<path d="M1675 730 c-3 -5 -1 -10 4 -10 6 0 11 5 11 10 0 6 -2 10 -4 10 -3 0
-8 -4 -11 -10z"/>
<path d="M2031 674 c0 -11 3 -14 6 -6 3 7 2 16 -1 19 -3 4 -6 -2 -5 -13z"/>
<path d="M2975 680 c3 -5 8 -10 11 -10 2 0 4 5 4 10 0 6 -5 10 -11 10 -5 0 -7
-4 -4 -10z"/>
<path d="M2056 672 c-3 -5 1 -9 9 -9 8 0 12 4 9 9 -3 4 -7 8 -9 8 -2 0 -6 -4
-9 -8z"/>
<path d="M2670 662 c0 -12 3 -12 15 -2 8 7 15 13 15 15 0 1 -7 2 -15 2 -8 0
-15 -7 -15 -15z"/>
<path d="M2315 640 c3 -5 8 -10 11 -10 2 0 4 5 4 10 0 6 -5 10 -11 10 -5 0 -7
-4 -4 -10z"/>
</g>
</svg>
